<svg width="42" height="40" viewBox="0 0 42 40" fill="none" xmlns="http://www.w3.org/2000/svg">
<path d="M28.958 20.5215C28.958 20.0215 28.8955 19.6465 28.833 19.2402H21.458V21.8965H25.833C25.6768 23.0527 24.5205 25.2402 21.458 25.2402C18.8018 25.2402 16.6455 23.0527 16.6455 20.334C16.6455 15.9902 21.7705 13.9902 24.5205 16.6465L26.6455 14.6152C25.3018 13.3652 23.5205 12.584 21.458 12.584C17.1455 12.584 13.708 16.0527 13.708 20.334C13.708 24.6465 17.1455 28.084 21.458 28.084C25.9268 28.084 28.958 24.959 28.958 20.5215Z" fill="white"/>
<rect opacity="0.1" width="42" height="40" rx="20" fill="#2387C0"/>
</svg>
