<svg width="40" height="40" viewBox="0 0 40 40" fill="none" xmlns="http://www.w3.org/2000/svg">
<rect opacity="0.1" width="40" height="40" rx="20" fill="#2387C0"/>
<path d="M20.333 16.7402C18.333 16.7402 16.7393 18.3652 16.7393 20.334C16.7393 22.334 18.333 23.9277 20.333 23.9277C22.3018 23.9277 23.9268 22.334 23.9268 20.334C23.9268 18.3652 22.3018 16.7402 20.333 16.7402ZM20.333 22.6777C19.0518 22.6777 17.9893 21.6465 17.9893 20.334C17.9893 19.0527 19.0205 18.0215 20.333 18.0215C21.6143 18.0215 22.6455 19.0527 22.6455 20.334C22.6455 21.6465 21.6143 22.6777 20.333 22.6777ZM24.8955 16.6152C24.8955 16.1465 24.5205 15.7715 24.0518 15.7715C23.583 15.7715 23.208 16.1465 23.208 16.6152C23.208 17.084 23.583 17.459 24.0518 17.459C24.5205 17.459 24.8955 17.084 24.8955 16.6152ZM27.2705 17.459C27.208 16.334 26.958 15.334 26.1455 14.5215C25.333 13.709 24.333 13.459 23.208 13.3965C22.0518 13.334 18.583 13.334 17.4268 13.3965C16.3018 13.459 15.333 13.709 14.4893 14.5215C13.6768 15.334 13.4268 16.334 13.3643 17.459C13.3018 18.6152 13.3018 22.084 13.3643 23.2402C13.4268 24.3652 13.6768 25.334 14.4893 26.1777C15.333 26.9902 16.3018 27.2402 17.4268 27.3027C18.583 27.3652 22.0518 27.3652 23.208 27.3027C24.333 27.2402 25.333 26.9902 26.1455 26.1777C26.958 25.334 27.208 24.3652 27.2705 23.2402C27.333 22.084 27.333 18.6152 27.2705 17.459ZM25.7705 24.459C25.5518 25.084 25.0518 25.5527 24.458 25.8027C23.5205 26.1777 21.333 26.084 20.333 26.084C19.3018 26.084 17.1143 26.1777 16.208 25.8027C15.583 25.5527 15.1143 25.084 14.8643 24.459C14.4893 23.5527 14.583 21.3652 14.583 20.334C14.583 19.334 14.4893 17.1465 14.8643 16.209C15.1143 15.6152 15.583 15.1465 16.208 14.8965C17.1143 14.5215 19.3018 14.6152 20.333 14.6152C21.333 14.6152 23.5205 14.5215 24.458 14.8965C25.0518 15.1152 25.5205 15.6152 25.7705 16.209C26.1455 17.1465 26.0518 19.334 26.0518 20.334C26.0518 21.3652 26.1455 23.5527 25.7705 24.459Z" fill="white"/>
</svg>
