<svg width="40" height="40" viewBox="0 0 40 40" fill="none" xmlns="http://www.w3.org/2000/svg">
<rect opacity="0.1" width="40" height="40" rx="20" fill="#2387C0"/>
<path d="M26.333 13.334H14.3018C13.7705 13.334 13.333 13.8027 13.333 14.3652V26.334C13.333 26.8965 13.7705 27.334 14.3018 27.334H26.333C26.8643 27.334 27.333 26.8965 27.333 26.334V14.3652C27.333 13.8027 26.8643 13.334 26.333 13.334ZM17.5518 25.334H15.4893V18.6777H17.5518V25.334ZM16.5205 17.7402C15.833 17.7402 15.3018 17.209 15.3018 16.5527C15.3018 15.8965 15.833 15.334 16.5205 15.334C17.1768 15.334 17.708 15.8965 17.708 16.5527C17.708 17.209 17.1768 17.7402 16.5205 17.7402ZM25.333 25.334H23.2393V22.084C23.2393 21.334 23.2393 20.334 22.1768 20.334C21.083 20.334 20.9268 21.1777 20.9268 22.0527V25.334H18.8643V18.6777H20.833V19.584H20.8643C21.1455 19.0527 21.833 18.4902 22.833 18.4902C24.9268 18.4902 25.333 19.8965 25.333 21.6777V25.334Z" fill="white"/>
</svg>
