<svg width="42" height="40" viewBox="0 0 42 40" fill="none" xmlns="http://www.w3.org/2000/svg">
<rect opacity="0.1" width="42" height="40" rx="20" fill="#2387C0"/>
<path d="M27.6768 17.084C28.3018 16.6152 28.8643 16.0527 29.3018 15.3965C28.7393 15.6465 28.083 15.834 27.4268 15.8965C28.1143 15.4902 28.6143 14.8652 28.8643 14.084C28.2393 14.459 27.5205 14.7402 26.8018 14.8965C26.1768 14.2402 25.333 13.8652 24.3955 13.8652C22.583 13.8652 21.1143 15.334 21.1143 17.1465C21.1143 17.3965 21.1455 17.6465 21.208 17.8965C18.4893 17.7402 16.0518 16.4277 14.4268 14.459C14.1455 14.9277 13.9893 15.4902 13.9893 16.1152C13.9893 17.2402 14.5518 18.2402 15.458 18.834C14.9268 18.8027 14.3955 18.6777 13.958 18.4277V18.459C13.958 20.0527 15.083 21.3652 16.583 21.6777C16.333 21.7402 16.0205 21.8027 15.7393 21.8027C15.5205 21.8027 15.333 21.7715 15.1143 21.7402C15.5205 23.0527 16.7393 23.9902 18.1768 24.0215C17.0518 24.8965 15.6455 25.4277 14.1143 25.4277C13.833 25.4277 13.583 25.3965 13.333 25.3652C14.7705 26.3027 16.4893 26.834 18.3643 26.834C24.3955 26.834 27.6768 21.8652 27.6768 17.5215C27.6768 17.3652 27.6768 17.2402 27.6768 17.084Z" fill="white"/>
</svg>
