<svg width="16" height="16" viewBox="0 0 16 16" fill="none" xmlns="http://www.w3.org/2000/svg">
<path d="M9.9339 4.56627L9.93387 4.56623C9.78372 4.41609 9.69937 4.21244 9.69937 4.0001C9.69937 3.78776 9.78372 3.58412 9.93387 3.43397C10.084 3.28382 10.2877 3.19947 10.5 3.19947C10.7123 3.19947 10.916 3.28382 11.0661 3.43397L15.0659 7.4337L9.9339 4.56627ZM9.9339 4.56627L12.5686 7.2001L1.5 7.2001C1.28783 7.2001 1.08434 7.28439 0.934315 7.43442C0.784285 7.58444 0.7 7.78793 0.7 8.0001C0.7 8.21227 0.784286 8.41576 0.934315 8.56579C1.08434 8.71581 1.28783 8.8001 1.5 8.8001H12.5686L9.9339 11.4339L9.93387 11.434M9.9339 4.56627L9.93387 11.434M9.93387 11.434C9.78372 11.5841 9.69937 11.7878 9.69937 12.0001C9.69937 12.2124 9.78372 12.4161 9.93387 12.5662C10.084 12.7164 10.2877 12.8007 10.5 12.8007C10.7123 12.8007 10.916 12.7164 11.0661 12.5662L15.0659 8.5665L9.93387 11.434ZM15.2398 7.69349C15.1995 7.59641 15.1405 7.50823 15.0661 7.43397V8.56623C15.1405 8.49197 15.1995 8.40379 15.2398 8.30671C15.2801 8.20952 15.3009 8.10533 15.3009 8.0001C15.3009 7.89487 15.2801 7.79068 15.2398 7.69349Z" fill="black" stroke="black" stroke-width="0.6"/>
</svg>
